<svg class="svg-icon" style="width: 1em;height: 1em;vertical-align: middle;fill: currentColor;overflow: hidden;" viewBox="0 0 1024 1024" version="1.1" xmlns="http://www.w3.org/2000/svg"><path d="M815.47264 164.61824c58.04032 0 105.14432 43.54048 105.14432 97.28v499.87584c0 53.73952-47.06304 97.28-105.14432 97.28H208.52736c-58.12224 0-105.22624-43.54048-105.22624-97.28v-24.9856a27.467776 27.467776 0 0 1 0-14.78656V261.85728c0-53.73952 47.06304-97.28 105.14432-97.28h607.0272z m0 59.22816H208.52736c-22.89664 0-41.20576 16.95744-41.45152 38.05184v315.5968c15.36-28.34432 30.43328-52.51072 45.2608-71.92576 25.64096-33.83296 50.74944-54.14912 76.5952-61.93152 23.79776-7.20896 47.06304-4.01408 67.91168 9.50272 70.2464 45.6704 152.9856 144.83456 195.05152 198.57408 8.43776-11.264 18.67776-24.28928 30.14656-37.4784 47.75936-55.13216 89.62048-84.5824 127.7952-89.57952 24.20736-3.19488 46.36672 3.11296 64.22528 18.55488 30.02368 25.84576 58.7776 58.40896 82.5344 88.18688v-369.4592c0-20.97152-18.47296-38.17472-41.12384-38.17472v0.08192z m-99.40992 79.62624c37.6832 0 68.1984 31.08864 68.1984 69.4272s-30.5152 69.4272-68.1984 69.4272-68.1984-31.08864-68.1984-69.4272 30.5152-69.4272 68.1984-69.4272z m0 0" fill="#BEC9D7" /></svg>