<svg class="svg-icon" style="width: 1em;height: 1em;vertical-align: middle;fill: currentColor;overflow: hidden;" viewBox="0 0 1024 1024" version="1.1" xmlns="http://www.w3.org/2000/svg"><path d="M787.1488 104.6016H242.8416c-73.0624 0-132.5056 59.4432-132.5056 132.5056v544.3072c0 73.0624 59.4432 132.5056 132.5056 132.5056h544.3072c73.0624 0 132.5056-59.4432 132.5056-132.5056V237.1072c-0.0512-73.0624-59.4944-132.5056-132.5056-132.5056z m71.0144 676.8128c0 39.168-31.8976 71.0656-71.0656 71.0656H242.8416c-39.168 0-71.0656-31.8976-71.0656-71.0656V237.1072c0-39.168 31.8976-71.0656 71.0656-71.0656h544.3072c39.168 0 71.0656 31.8976 71.0656 71.0656v544.3072z" fill="#57576D" /><path d="M399.4112 551.7824H265.1136c-16.9472 0-30.72 13.7728-30.72 30.72v142.592c0 16.9472 13.7728 30.72 30.72 30.72h134.2976c16.9472 0 30.72-13.7728 30.72-30.72v-142.592c0-16.9984-13.7216-30.72-30.72-30.72z m-30.72 142.592H295.8336v-81.152h72.8576v81.152z" fill="#6893DF" /><path d="M770.6112 551.7824H500.3264c-16.9472 0-30.72 13.7728-30.72 30.72v142.592c0 16.9472 13.7728 30.72 30.72 30.72h270.2848c16.9472 0 30.72-13.7728 30.72-30.72v-142.592c0-16.9984-13.7728-30.72-30.72-30.72z m-30.72 142.592h-208.8448v-81.152h208.8448v81.152z" fill="#57576D" /><path d="M399.4112 262.7072H265.1136c-16.9472 0-30.72 13.7728-30.72 30.72v142.592c0 16.9472 13.7728 30.72 30.72 30.72h134.2976c16.9472 0 30.72-13.7728 30.72-30.72V293.4272c0-16.9984-13.7216-30.72-30.72-30.72z m-30.72 142.592H295.8336V324.1472h72.8576v81.152z" fill="#6893DF" /><path d="M770.6112 262.7072H500.3264c-16.9472 0-30.72 13.7728-30.72 30.72v142.592c0 16.9472 13.7728 30.72 30.72 30.72h270.2848c16.9472 0 30.72-13.7728 30.72-30.72V293.4272c0-16.9984-13.7728-30.72-30.72-30.72z m-30.72 142.592h-208.8448V324.1472h208.8448v81.152z" fill="#57576D" /></svg>